<svg xmlns="http://www.w3.org/2000/svg" width="1080" height="1080" viewBox="0 0 1080 1080"><defs><linearGradient id="b" x1="0" x2="0" y1="0" y2="1"><stop offset="0" stop-color="#e2e2e2"/><stop offset=".5" stop-color="#cacaca"/><stop offset="1" stop-color="#c4c4c4"/></linearGradient><linearGradient id="c" x1="0" x2="0" y1="0" y2="1"><stop offset="0" stop-color="#fff"/><stop offset="1" stop-color="#e6e6e6"/></linearGradient><linearGradient id="e" x1="0" x2="0" y1="0" y2="1"><stop offset="0" stop-color="#1d9db5"/><stop offset=".35" stop-color="#148fa6"/><stop offset=".7" stop-color="#0e7d94"/><stop offset="1" stop-color="#096c82"/></linearGradient><filter id="a" width="112%" height="112%" x="-6%" y="-4%"><feDropShadow dx="0" dy="3" flood-color="#000" flood-opacity=".18" stdDeviation="14"/></filter><filter id="d" width="116%" height="112%" x="-8%" y="-4%"><feDropShadow dx="0" dy="4" flood-color="#000" flood-opacity=".22" stdDeviation="10"/></filter></defs><rect width="884" height="745" x="98" y="100" fill="#fff" filter="url(#a)" rx="44" ry="44"/><rect width="844" height="705" x="118" y="120" fill="#1b2d3d" rx="32" ry="32"/><rect width="796" height="126" x="142" y="144" fill="url(#b)" rx="14" ry="14"/><circle cx="244" cy="222" r="14" fill="#0d7a90"/><circle cx="304" cy="222" r="14" fill="#0d7a90"/><circle cx="364" cy="222" r="14" fill="#0d7a90"/><circle cx="240" cy="218" r="5" fill="#3ec0d4" opacity=".55"/><circle cx="300" cy="218" r="5" fill="#3ec0d4" opacity=".55"/><circle cx="360" cy="218" r="5" fill="#3ec0d4" opacity=".55"/><path fill="#152030" d="M142 270h796v28H142z"/><path fill="url(#c)" d="M142 298h796v495H142z"/><path d="M375 311h55l115 93 115-93h55L577 431l138 110h-55l-115-93-115 93h-55l138-110z" opacity=".12"/><path fill="#1b2d3d" d="M370 305h55l115 93 115-93h55L572 425l138 110h-55l-115-93-115 93h-55l138-110z"/><path fill="#1a96b0" d="M388 313h34l118 95 118-95h36L568 423l126 106h-34l-120-95-120 95h-34l126-106z" opacity=".32"/><rect width="844" height="65" x="118" y="760" fill="#1b2d3d" rx="32" ry="32"/><path fill="#1b2d3d" d="M142 740h796v50H142z"/><g filter="url(#d)"><rect width="586" height="448" x="247" y="538" fill="#fff" rx="24" ry="24"/><rect width="530" height="112" x="275" y="565" fill="url(#e)" rx="12" ry="12"/><rect width="195" height="42" x="308" y="593" fill="#b8cdd4" opacity=".85" rx="6" ry="6"/><rect width="179" height="26" x="316" y="601" fill="#92aab4" opacity=".55" rx="4" ry="4"/><circle cx="600" cy="614" r="10" fill="#c0d8dc" opacity=".9"/><circle cx="640" cy="614" r="10" fill="#c0d8dc" opacity=".9"/><circle cx="597" cy="611" r="4.5" fill="#e4f2f4" opacity=".65"/><circle cx="637" cy="611" r="4.5" fill="#e4f2f4" opacity=".65"/><rect width="530" height="112" x="275" y="697" fill="url(#e)" rx="12" ry="12"/><rect width="195" height="42" x="308" y="725" fill="#b8cdd4" opacity=".85" rx="6" ry="6"/><rect width="179" height="26" x="316" y="733" fill="#92aab4" opacity=".55" rx="4" ry="4"/><circle cx="600" cy="746" r="10" fill="#c0d8dc" opacity=".9"/><circle cx="640" cy="746" r="10" fill="#c0d8dc" opacity=".9"/><circle cx="597" cy="743" r="4.5" fill="#e4f2f4" opacity=".65"/><circle cx="637" cy="743" r="4.5" fill="#e4f2f4" opacity=".65"/><rect width="530" height="112" x="275" y="829" fill="url(#e)" rx="12" ry="12"/><rect width="195" height="42" x="308" y="857" fill="#b8cdd4" opacity=".85" rx="6" ry="6"/><rect width="179" height="26" x="316" y="865" fill="#92aab4" opacity=".55" rx="4" ry="4"/><circle cx="600" cy="878" r="10" fill="#c0d8dc" opacity=".9"/><circle cx="640" cy="878" r="10" fill="#c0d8dc" opacity=".9"/><circle cx="597" cy="875" r="4.5" fill="#e4f2f4" opacity=".65"/><circle cx="637" cy="875" r="4.5" fill="#e4f2f4" opacity=".65"/></g></svg>
