<svg xmlns="http://www.w3.org/2000/svg" width="1024" height="1024" viewBox="0 0 1024 1024"><path fill="#02bee5" d="M275.4 51.1c169.5-3.2 339.2-6 508.5 3.2 26.9 1.4 51.7 16.3 75.7 28.6a154 154 0 0 1 37.9 29.7c13.6 13.8 27 28.5 35.9 45.6 11.8 22.8 24.6 47 25.6 72.7 7.5 189.1 8.4 378.7 0 567.8-1.2 26.5-17 50.5-28.7 74.3a116 116 0 0 1-22.5 29.7 363 363 0 0 1-45.6 38.4c-11 7.7-23.1 14.4-35.8 18.9-17.5 6.2-35.5 12.4-54 12.8-174 3.9-348.1 4.3-522 0-19.2-.5-37.7-8-55.8-14.3a143 143 0 0 1-30.2-15.9c-12.5-8.2-25-16.5-35.4-27.1-14.3-14.7-28.8-30-38.4-48.2-12-22.7-24.7-47-25.6-72.7-6.6-192.5-2.6-385.4 3.1-578 .5-16 8.5-31.1 15.4-45.6a174 174 0 0 1 23-35.3c10.6-13 21.8-25.9 35.3-35.9a248 248 0 0 1 59.9-34.3 233 233 0 0 1 73.7-14.4"/><path fill="#54c0d5" d="M275.4 51.1c169.5-3.2 339.2-6 508.5 3.2 26.9 1.4 51.7 16.3 75.7 28.6a154 154 0 0 1 37.9 29.7c13.6 13.8 27 28.5 35.9 45.6 11.8 22.8 24.6 47 25.6 72.7 7.5 189.1 8.4 378.7 0 567.8-1.2 26.5-17 50.5-28.7 74.3a116 116 0 0 1-22.5 29.7 363 363 0 0 1-45.6 38.4c-11 7.7-23.1 14.4-35.8 18.9-17.5 6.2-35.5 12.4-54 12.8-174 3.9-348.1 4.3-522 0-19.2-.5-37.7-8-55.8-14.3a143 143 0 0 1-30.2-15.9c-12.5-8.2-25-16.5-35.4-27.1-14.3-14.7-28.8-30-38.4-48.2-12-22.7-24.7-47-25.6-72.7-6.6-192.5-2.6-385.4 3.1-578 .5-16 8.5-31.1 15.4-45.6a174 174 0 0 1 23-35.3c10.6-13 21.8-25.9 35.3-35.9a248 248 0 0 1 59.9-34.3 233 233 0 0 1 73.7-14.4m-91.1 869-2.5 6.1c7.6 1.7 15.1 5.1 23 5.1q284.7 1.8 569.3-1c7.5-.1 14.7-3.1 22.1-4.6-.7-1.5-2.9-3.1-2.1-4.6 4-7.7 9.7-14.4 15.4-21 4.3-5.1 8.5-10.6 14.3-13.8 2-1.1 4.1 1.7 6.2 2.5-.4-1.7-2.1-3.7-1.1-5.1 2.7-3.6 10.7-3.7 10.8-8.2 3-194 4.2-388.2-1.6-582.1-.1-6.2-11.6-5.2-15.8-9.8-6.6-7-9.1-17.2-15.9-24-16.5-16.6-36.7-29.1-53.2-45.6-34.2-33.9-64.5-71.7-98.9-105.5-7.3-7.1-15.4-16.4-25.6-16.9-125.9-5.9-252.2-1.5-378.3-2-5.3 0-11.2-2-15.9.5a62 62 0 0 0-20 18.4c-2.9 4.1-.1 11.4-4.1 14.4-7.6 5.7-19.9 2.9-27.1 9.1a38 38 0 0 0-12.9 26.1c-5.1 243.5-4.8 487.2-3 730.7.1 9.9 4.1 19.6 8.7 28.2 1.4 2.6 5.5 2 8.2 3.1"/><path fill="#0095b5" d="M205.3 123.4c1.2 246.4.1 492.9 3.6 739.3.1 5.4 3.3 10.7 7.2 14.4 7.4 7 15.3 16.6 25.6 16.9 188.6 5.3 377.6 7.3 566.2 0 12.4-.5 19.5-15.4 29.2-23.1l2.1 9.2c-8.4 5-17.9 8.3-25.1 14.9a107 107 0 0 0-20 26.1c-.8 1.4 1.4 3.1 2.1 4.6-7.5 1.5-14.9 4.5-22.6 4.6q-284.4 2.8-568.8 1c-7.9 0-15.4-3.4-23-5.1l2.5-6.1c-3.7-3.1-8.2-5.4-11.2-9.3-1.1-1.3 0-3.4 0-5.1l6.1 5.1c-1.9-2.9-5.6-5.2-5.6-8.7-1.9-251.5 0-503.1 0-754.6l6.6 6.6v-16.4c4.5-.7 9.4.2 13.3-2 5-2.8 7.9-8.2 11.8-12.3"/><path fill="#fbfdfd" d="M357 392h93l24 33 38 53 23 32 40 52 43 56 27 34 26 37h-91l-32-41-36-51-24-32-32-45-36-52-28-38-22-28z"/><path fill="#fcfdfc" d="M588 392h90l-2 6-32 42-26 36-28 40h-13l-9-11-20-27-11-18 11-20 17-22z"/><path fill="#3dcdea" d="M291.3 206.8h277.5v1.6h1.6v24h-1.6v3.1c-91.5.1-183 .7-274.5.2-1.2 0-2.9-.6-3-1.7-.9-9 0-18.1 0-27.2"/><path fill="#3dcee9" d="M291.3 287.7h334.4v25.6c-1.6.6-3.2 1.6-4.8 1.6q-163.5 1-327 .2c-1 0-2.5-.7-2.6-1.8-.8-8.5 0-17 0-25.6"/><path fill="#02fdfd" d="M638 540a41 41 0 1 1 82 0 41 41 0 1 1-82 0"/><path fill="#fcfdfd" d="m453 568 13 17 18 27 13 20-17 22-20 27-5 8h-93l3-5 15-24 20-24 18-24 16-20z"/></svg>
